<?xml version="1.0" standalone="no"?>
<!DOCTYPE svg PUBLIC "-//W3C//DTD SVG 20010904//EN"
 "http://www.w3.org/TR/2001/REC-SVG-20010904/DTD/svg10.dtd">
<svg version="1.0" xmlns="http://www.w3.org/2000/svg"
 width="1280.000000pt" height="1280.000000pt" viewBox="0 0 1280.000000 1280.000000"
 preserveAspectRatio="xMidYMid meet">
<metadata>
Created by potrace 1.14, written by Peter Selinger 2001-2017
</metadata>
<g transform="translate(0.000000,1280.000000) scale(0.100000,-0.100000)"
fill="#000000" stroke="none">
<path d="M6341 12176 c-6 -8 -42 -16 -84 -20 -99 -9 -182 -25 -247 -46 -30
-10 -92 -21 -138 -25 -45 -3 -97 -12 -115 -19 -17 -8 -51 -22 -74 -31 -23 -10
-51 -26 -63 -37 -11 -10 -42 -29 -68 -41 -41 -20 -82 -42 -197 -110 -16 -10
-68 -37 -115 -60 -61 -30 -103 -59 -147 -104 -35 -35 -63 -68 -63 -74 0 -14
-83 -137 -157 -234 -77 -100 -204 -363 -223 -463 -15 -73 -8 -173 13 -205 8
-12 17 -38 20 -57 16 -93 19 -101 33 -89 12 10 13 9 8 -5 -3 -9 -3 -24 1 -33
4 -10 9 -37 11 -59 2 -23 12 -57 23 -75 14 -23 21 -59 25 -114 2 -44 9 -93 15
-108 6 -16 9 -32 6 -37 -3 -4 1 -25 9 -46 7 -22 13 -64 14 -95 0 -30 7 -76 16
-102 9 -26 16 -70 16 -98 0 -27 7 -64 16 -81 16 -31 17 -51 10 -160 -4 -64 3
-71 29 -32 18 27 17 43 -3 141 -7 32 -6 43 4 47 8 3 14 11 14 19 0 7 5 18 12
25 15 15 21 52 9 52 -5 0 -12 -8 -14 -17 -3 -10 -2 2 1 27 3 25 6 62 6 82 1
20 4 40 8 43 4 4 4 14 1 23 -4 15 -3 15 6 2 16 -23 36 2 22 28 -6 11 -8 29 -4
39 9 28 53 63 78 63 20 0 36 18 39 43 1 4 6 11 12 15 7 4 14 18 15 32 3 14 14
29 27 35 18 8 22 16 18 37 -4 19 2 33 19 53 14 14 25 30 25 34 0 18 81 90 95
84 8 -3 15 0 15 7 0 7 7 10 15 7 8 -4 17 -2 20 3 12 19 25 10 41 -27 l15 -38
18 22 c21 25 31 20 31 -15 0 -20 3 -22 14 -13 11 9 15 7 21 -11 l7 -23 7 24 6
24 13 -27 c6 -15 12 -35 12 -46 0 -24 17 -35 34 -21 19 16 46 3 46 -21 0 -11
5 -18 13 -15 6 2 20 -2 30 -11 11 -10 17 -11 17 -4 0 7 3 11 8 10 4 -1 17 3
29 10 12 7 26 12 30 11 22 -4 34 3 42 22 7 20 9 19 25 -15 17 -35 46 -50 46
-22 0 20 38 27 55 9 8 -8 19 -12 24 -9 5 4 11 1 13 -6 2 -6 13 4 25 22 12 20
23 28 27 21 4 -6 18 -8 32 -5 17 4 26 1 30 -10 8 -20 23 -20 45 0 20 18 41 11
33 -11 -8 -20 31 -38 56 -25 11 6 20 16 20 23 0 6 10 -3 23 -20 27 -40 37 -41
37 -5 0 22 4 27 25 27 14 0 25 -3 25 -8 0 -4 8 -3 18 2 9 5 28 14 42 20 14 6
32 15 40 20 32 21 95 45 113 44 14 -2 18 3 14 16 -2 10 2 26 10 37 13 17 16
18 40 4 26 -15 29 -14 68 23 29 27 46 36 62 32 12 -3 25 0 28 5 4 6 15 8 25 5
12 -4 22 1 29 12 5 10 13 15 17 11 4 -5 13 -3 21 3 10 9 13 8 13 -1 0 -8 3
-10 7 -7 3 4 12 2 19 -3 8 -8 16 -7 25 3 8 8 31 13 57 11 44 -2 51 3 30 24
-15 15 -3 15 24 1 12 -7 64 -12 115 -12 51 0 93 -4 93 -7 0 -4 18 -10 41 -13
22 -3 49 -13 60 -23 18 -16 19 -16 19 2 1 18 1 18 11 2 5 -10 18 -18 29 -18
10 0 25 -6 32 -12 7 -7 20 -14 28 -16 8 -1 25 -7 37 -13 11 -6 37 -10 57 -7
23 3 36 0 36 -8 0 -13 32 -24 73 -24 17 0 27 -5 27 -15 0 -8 6 -15 14 -15 8 0
21 -7 29 -15 8 -8 21 -16 28 -17 15 -4 46 -26 68 -50 8 -10 19 -18 24 -18 15
0 58 -54 55 -69 -2 -9 6 -21 17 -26 12 -6 21 -23 23 -40 4 -30 22 -61 22 -37
0 26 19 10 34 -29 9 -23 25 -43 36 -46 10 -3 24 -19 31 -36 7 -18 19 -40 27
-50 8 -9 16 -32 17 -50 0 -17 7 -42 13 -54 7 -13 9 -23 5 -23 -9 0 29 -23 64
-39 23 -11 34 -48 37 -121 0 -22 2 -40 3 -40 2 0 9 15 16 33 l14 32 7 -32 c4
-18 12 -36 17 -39 6 -3 14 -17 19 -30 9 -24 30 -33 30 -14 0 6 -4 10 -9 10 -5
0 -14 21 -21 48 -6 26 -19 62 -27 80 -13 27 -15 54 -9 148 4 63 11 127 17 142
14 36 9 218 -8 278 -7 27 -13 107 -14 177 l-1 128 31 39 c17 21 31 48 31 58 0
11 7 36 15 55 20 49 20 236 0 303 -16 56 -67 139 -156 256 -41 54 -69 104 -90
162 -31 86 -83 172 -179 296 -30 39 -71 92 -91 118 -46 60 -140 118 -226 139
-37 9 -88 30 -113 45 -67 42 -108 50 -224 42 -100 -6 -106 -5 -184 25 -71 27
-94 31 -179 31 -54 0 -125 7 -158 14 -33 8 -89 18 -125 21 -38 4 -76 15 -92
26 -34 24 -168 28 -187 5z m-584 -1878 c-3 -8 -6 -5 -6 6 -1 11 2 17 5 13 3
-3 4 -12 1 -19z m78 12 c3 -5 1 -10 -4 -10 -6 0 -11 5 -11 10 0 6 2 10 4 10 3
0 8 -4 11 -10z"/>
<path d="M8040 9936 c0 -8 5 -18 10 -21 6 -3 10 1 10 9 0 8 -4 18 -10 21 -5 3
-10 -1 -10 -9z"/>
<path d="M4961 9853 c0 -25 1 -26 9 -8 12 27 12 35 0 35 -5 0 -10 -12 -9 -27z"/>
<path d="M7475 9768 c-4 -10 -15 -13 -30 -10 -13 2 -40 -1 -59 -8 -20 -6 -64
-11 -98 -11 -34 0 -65 -5 -69 -11 -3 -5 -22 -13 -40 -17 -31 -6 -41 -28 -11
-25 16 2 15 -4 -4 -23 -29 -29 0 -39 59 -20 29 9 109 24 178 33 68 9 131 19
139 22 17 6 13 6 68 -3 48 -8 54 3 20 35 -16 15 -24 17 -30 8 -4 -7 -8 -8 -8
-3 0 16 -56 44 -71 34 -8 -4 -19 -3 -26 3 -9 7 -14 6 -18 -4z"/>
<path d="M5478 9763 c7 -3 16 -2 19 1 4 3 -2 6 -13 5 -11 0 -14 -3 -6 -6z"/>
<path d="M5631 9759 c-19 -4 -40 -5 -48 -2 -8 3 -13 0 -11 -7 2 -7 -17 -20
-44 -29 -86 -30 -76 -37 44 -35 62 2 142 -2 177 -7 80 -11 140 3 119 28 -19
24 -72 43 -117 43 -22 0 -43 5 -46 10 -3 6 -12 10 -18 9 -9 0 -9 -2 1 -6 6 -2
12 -9 12 -14 0 -14 -28 -11 -32 4 -2 9 -13 11 -37 6z"/>
<path d="M5440 9750 c0 -5 5 -10 10 -10 6 0 10 5 10 10 0 6 -4 10 -10 10 -5 0
-10 -4 -10 -10z"/>
<path d="M8145 9710 c-3 -5 3 -10 15 -10 12 0 18 5 15 10 -3 6 -10 10 -15 10
-5 0 -12 -4 -15 -10z"/>
<path d="M5375 9544 c-86 -10 -200 -35 -222 -49 -12 -9 -48 -51 -78 -94 -69
-99 -78 -106 -134 -107 -87 -1 -96 -4 -106 -27 -6 -12 -8 -38 -5 -57 5 -35 5
-35 63 -38 72 -4 82 -17 97 -132 22 -160 39 -230 79 -316 77 -164 193 -296
286 -326 129 -42 419 -54 550 -23 63 14 69 14 86 -1 10 -9 16 -22 12 -28 -3
-6 -2 -8 2 -3 5 4 15 22 24 41 9 19 60 80 113 136 54 56 105 118 115 137 9 20
36 71 60 112 61 106 74 156 79 300 5 165 1 161 155 161 152 0 166 -6 175 -78
4 -30 4 -81 0 -114 -5 -50 -1 -73 24 -146 42 -125 155 -324 223 -397 31 -33
57 -63 57 -67 0 -4 9 -22 21 -40 21 -33 21 -33 16 -5 -5 32 -3 33 57 7 164
-73 555 -65 689 13 79 46 194 193 253 320 28 62 58 178 75 295 7 46 18 90 24
99 8 10 33 18 68 21 44 3 58 9 62 23 4 11 11 19 16 19 5 0 9 11 9 24 0 19 -4
23 -20 19 -16 -4 -19 -2 -14 11 5 14 -3 16 -65 16 -79 0 -66 -10 -166 128 -55
76 -87 97 -174 112 -137 25 -202 31 -426 40 -239 9 -2010 21 -2080 14z m445
-48 c154 -5 293 -27 346 -54 40 -21 102 -98 143 -178 27 -53 31 -72 31 -140 0
-258 -186 -620 -358 -697 -82 -37 -147 -48 -292 -48 -169 0 -285 17 -365 52
-72 32 -171 154 -235 291 -48 102 -70 225 -70 389 0 102 1 108 38 185 43 88
81 138 121 158 53 28 299 55 436 49 33 -1 125 -5 205 -7z m1095 -17 c6 -6 -4
-23 -27 -47 -19 -20 -54 -66 -78 -100 -35 -53 -46 -63 -63 -58 -12 3 -105 6
-207 6 l-185 0 -30 52 c-16 29 -47 71 -69 95 -21 23 -36 48 -33 55 3 10 77 12
343 10 194 -2 343 -7 349 -13z m865 -18 c196 -32 226 -51 292 -190 l41 -86 -6
-125 c-12 -249 -61 -383 -201 -552 -99 -119 -191 -149 -456 -150 -223 -1 -338
36 -429 139 -129 145 -230 411 -233 614 -1 83 19 137 88 232 65 89 112 111
294 131 61 7 553 -3 610 -13z"/>
<path d="M5628 9403 c7 -3 16 -2 19 1 4 3 -2 6 -13 5 -11 0 -14 -3 -6 -6z"/>
<path d="M5524 9374 c-59 -28 -104 -69 -104 -93 1 -12 6 -10 23 9 22 25 101
77 147 98 21 9 22 11 5 11 -11 0 -43 -11 -71 -25z"/>
<path d="M5617 9373 c-4 -6 -25 -13 -47 -17 -22 -3 -40 -10 -40 -14 0 -15 -56
-70 -77 -76 -25 -8 -60 -66 -39 -66 22 0 66 25 66 38 0 6 5 12 10 12 6 0 10
-7 10 -15 0 -8 5 -15 10 -15 6 0 10 10 10 23 0 18 2 19 10 7 8 -12 10 -11 10
7 0 13 12 29 33 41 47 29 107 62 112 62 12 0 3 -34 -15 -57 -36 -46 -19 -131
32 -167 31 -22 141 -22 163 0 31 32 47 75 41 113 -4 20 -8 47 -10 60 -5 40
-56 60 -172 67 -65 4 -103 3 -107 -3z m233 -72 c0 -4 -28 -7 -62 -7 -69 1 -98
18 -45 26 34 6 107 -8 107 -19z m-29 -31 c11 0 19 -4 19 -9 0 -12 -44 -23 -48
-11 -2 5 -17 7 -33 3 -16 -3 -29 -1 -29 4 0 18 15 25 44 19 16 -3 37 -6 47 -6z"/>
<path d="M5955 9280 c10 -11 23 -20 28 -20 6 0 1 9 -11 20 -12 11 -24 20 -28
20 -4 0 1 -9 11 -20z"/>
<path d="M5075 9271 c-3 -5 -1 -12 5 -16 5 -3 10 1 10 9 0 18 -6 21 -15 7z"/>
<path d="M6035 9221 c-3 -5 -1 -13 5 -16 7 -5 8 -11 1 -19 -7 -8 -2 -15 15
-23 28 -13 30 -4 9 37 -17 32 -21 35 -30 21z"/>
<path d="M6290 8986 c-5 -15 -10 -36 -10 -47 0 -12 -7 -19 -20 -19 -14 0 -20
-7 -20 -24 0 -13 5 -26 11 -28 8 -3 6 -16 -5 -42 -9 -22 -15 -41 -13 -43 2 -2
14 20 26 49 17 40 19 53 9 60 -10 6 -9 8 3 8 12 0 19 15 27 53 11 58 8 74 -8
33z"/>
<path d="M7430 9396 c0 -2 9 -6 20 -9 11 -3 20 -1 20 4 0 5 -9 9 -20 9 -11 0
-20 -2 -20 -4z"/>
<path d="M7501 9372 c31 -26 12 -33 -36 -14 -41 16 -159 21 -209 8 -15 -4 -39
-19 -52 -33 -13 -14 -24 -21 -24 -14 0 6 -5 11 -11 11 -6 0 -8 -7 -5 -16 3 -9
1 -34 -4 -56 -9 -32 -8 -46 7 -76 21 -42 63 -63 92 -45 11 7 23 8 32 2 24 -15
68 -10 88 10 11 11 25 38 31 61 10 37 9 46 -15 86 -15 25 -25 47 -23 49 2 2
27 -4 56 -14 56 -19 102 -60 102 -92 0 -13 7 -19 21 -19 11 0 42 -10 70 -21
39 -17 52 -19 64 -9 19 16 10 30 -15 23 -18 -5 -20 -1 -18 28 3 29 0 33 -22
34 -16 0 -26 7 -28 18 -3 16 -1 17 17 8 31 -17 35 5 4 27 -70 49 -176 87 -122
44z m72 -44 c12 -9 14 -17 7 -28 -8 -13 -10 -13 -10 1 0 9 -10 21 -22 27 -15
7 -18 11 -7 11 8 1 23 -5 32 -11z m-275 -23 c-2 -5 -9 -9 -17 -8 -8 1 -25 -3
-38 -8 -18 -7 -24 -6 -21 3 8 22 83 35 76 13z m47 -5 c3 -5 -1 -10 -9 -10 -9
0 -16 5 -16 10 0 6 4 10 9 10 6 0 13 -4 16 -10z m-5 -45 c0 -8 -9 -15 -20 -15
-11 0 -23 -7 -27 -15 -7 -21 6 -33 16 -16 11 18 23 -2 15 -24 -4 -9 -13 -14
-21 -11 -8 3 -23 6 -34 6 -10 0 -19 7 -19 15 0 8 5 15 10 15 6 0 10 7 10 15 0
11 -5 12 -24 5 -20 -7 -25 -5 -29 10 -6 22 8 27 76 29 36 1 47 -3 47 -14z"/>
<path d="M8040 9240 c0 -5 5 -10 11 -10 5 0 7 5 4 10 -3 6 -8 10 -11 10 -2 0
-4 -4 -4 -10z"/>
<path d="M7016 9204 c-9 -24 -7 -34 7 -34 6 0 13 11 13 25 2 28 -11 34 -20 9z"/>
<path d="M7467 9153 c-12 -12 -7 -22 8 -17 8 4 15 10 15 15 0 11 -14 12 -23 2z"/>
<path d="M4845 9350 c-31 -32 -29 -49 3 -29 17 10 23 10 36 -1 22 -17 27 -10
20 28 -8 40 -22 40 -59 2z"/>
<path d="M8212 9318 c3 -29 7 -33 34 -34 18 -1 39 -4 48 -7 27 -10 18 18 -14
46 -16 15 -39 27 -51 27 -17 0 -20 -5 -17 -32z"/>
<path d="M6196 8321 c-23 -25 -14 -52 24 -74 16 -10 32 -18 35 -17 3 0 6 0 8
-1 16 -5 119 -7 140 -3 36 7 34 24 -6 51 -99 65 -168 81 -201 44z"/>
<path d="M6745 8316 c-42 -19 -79 -61 -71 -82 5 -14 19 -16 102 -12 80 3 99 7
110 23 20 27 17 42 -11 61 -34 22 -94 27 -130 10z"/>
<path d="M6954 7750 c-5 -5 -69 -11 -143 -13 -92 -3 -136 -8 -141 -17 -9 -15
-30 -4 -30 16 0 21 -33 17 -64 -7 -20 -16 -36 -19 -72 -16 -26 3 -50 10 -53
16 -7 11 -29 10 -48 -2 -6 -4 -13 -2 -15 4 -4 12 -81 14 -198 5 -41 -3 -77 -6
-80 -7 -5 -1 -103 1 -180 5 -44 1 -48 -24 -6 -35 15 -4 36 -15 46 -24 11 -10
32 -15 57 -14 21 2 44 0 50 -4 7 -4 14 -3 18 3 4 6 12 7 24 1 10 -6 23 -6 31
-1 9 5 19 5 27 -1 7 -7 19 -7 30 -1 10 5 77 7 148 4 162 -6 240 -6 432 1 125
4 153 2 157 -9 5 -14 44 -11 71 5 6 3 24 6 41 7 18 0 52 10 78 22 25 12 50 22
54 22 5 0 17 9 27 20 19 22 21 21 -32 23 -16 1 -107 -8 -197 -17 -20 -3 -26 0
-22 10 6 16 4 18 -10 4z m-326 -22 c-3 -7 -15 -15 -28 -16 -21 -3 -22 -2 -11
12 16 19 44 21 39 4z"/>
<path d="M7887 7327 l-75 -83 -7 -89 c-5 -72 -3 -110 13 -188 12 -55 27 -108
34 -119 12 -17 8 -31 -30 -111 -61 -127 -111 -197 -216 -303 -86 -85 -173
-148 -446 -322 -30 -19 -80 -51 -110 -71 -79 -51 -148 -94 -205 -129 -28 -17
-60 -42 -71 -54 -59 -69 -113 -207 -130 -339 -4 -27 -11 -49 -15 -49 -5 0 -6
-18 -3 -40 4 -24 2 -45 -5 -53 -6 -8 -8 -17 -4 -20 3 -4 1 -7 -5 -7 -7 0 -12
-6 -12 -14 0 -23 -52 -55 -75 -46 -11 4 -26 3 -32 -2 -7 -6 -25 -7 -40 -2 -16
4 -33 6 -39 5 -8 -1 -15 26 -19 71 -4 40 -14 93 -21 118 -8 25 -14 55 -14 68
0 12 -4 30 -9 40 -6 9 -22 55 -36 102 -16 51 -38 98 -54 115 -38 41 -152 140
-236 205 -112 86 -268 224 -335 297 -78 85 -189 239 -227 318 -29 59 -65 185
-78 276 -10 67 -21 80 -44 50 -25 -33 -59 -134 -67 -201 -4 -30 -10 -59 -14
-65 -3 -5 -8 -26 -9 -45 -2 -19 -4 -44 -6 -55 -1 -11 -3 -26 -4 -32 0 -7 -10
-13 -21 -13 -12 0 -22 -9 -26 -24 -5 -20 -9 -23 -23 -15 -11 7 -27 8 -51 1
-19 -6 -27 -11 -17 -11 20 -1 24 -21 4 -21 -7 0 -25 -15 -40 -33 -39 -50 -75
-87 -83 -87 -4 0 -22 -16 -39 -35 -27 -29 -30 -37 -19 -46 10 -8 11 -15 4 -24
-21 -26 15 -155 40 -140 4 3 17 -6 28 -20 11 -14 60 -56 109 -93 48 -37 158
-126 243 -197 335 -280 684 -525 990 -695 52 -29 121 -72 152 -96 31 -24 59
-44 62 -44 15 0 132 60 216 110 52 32 154 87 225 123 115 57 302 157 725 387
69 38 162 90 207 117 45 26 117 67 160 91 129 72 295 163 355 195 32 17 53 34
48 37 -15 9 20 89 41 95 11 4 19 15 19 26 0 11 7 22 15 25 13 5 13 8 0 21 -19
18 -19 49 -2 60 8 4 17 21 21 36 5 20 3 27 -4 22 -8 -5 -11 1 -8 16 2 20 9 24
38 25 40 0 80 -14 97 -36 11 -13 12 -13 13 2 0 38 -103 96 -120 68 -6 -9 -11
-7 -19 9 -15 26 -31 19 -31 -14 0 -34 -32 -135 -43 -135 -5 0 -6 8 -2 18 4 9
11 57 15 106 8 82 7 92 -13 128 -12 21 -27 38 -32 38 -6 0 -16 23 -22 50 -22
91 -138 340 -179 384 -25 26 -31 28 -78 22 -42 -5 -57 -2 -93 20 -24 14 -41
29 -38 34 6 10 32 3 52 -13 20 -15 113 2 113 20 0 24 -105 215 -151 275 -51
66 -76 88 -99 88 -10 0 -51 -37 -93 -83z m623 -1101 c0 -3 -4 -8 -10 -11 -5
-3 -10 -1 -10 4 0 6 5 11 10 11 6 0 10 -2 10 -4z m-10 -42 c0 -8 -4 -12 -10
-9 -5 3 -10 10 -10 16 0 5 5 9 10 9 6 0 10 -7 10 -16z m43 -29 c-21 -27 -30
-16 -13 15 6 11 15 18 21 15 5 -4 1 -16 -8 -30z m-118 -135 c3 -5 1 -10 -4
-10 -6 0 -11 5 -11 10 0 6 2 10 4 10 3 0 8 -4 11 -10z"/>
<path d="M5185 6600 c4 -6 11 -8 16 -5 14 9 11 15 -7 15 -8 0 -12 -5 -9 -10z"/>
<path d="M5120 6550 c0 -5 7 -10 15 -10 8 0 15 5 15 10 0 6 -7 10 -15 10 -8 0
-15 -4 -15 -10z"/>
<path d="M4990 6533 c-8 -3 -37 -27 -65 -54 -27 -27 -66 -56 -87 -66 -43 -21
-98 -87 -98 -118 0 -12 9 -30 20 -40 18 -17 21 -17 45 -1 14 9 25 22 25 29 0
6 11 0 25 -15 15 -17 30 -26 39 -22 23 9 20 30 -6 49 l-23 16 22 18 c12 10 20
21 18 23 -3 3 4 13 15 23 11 10 20 22 20 26 0 7 16 27 73 92 15 17 27 35 27
39 0 9 -27 9 -50 1z"/>
<path d="M8735 6310 c10 -16 138 -69 175 -71 49 -4 90 1 90 11 0 11 -9 13
-120 30 -41 6 -87 18 -102 26 -30 16 -52 18 -43 4z"/>
<path d="M8622 6230 c-23 -22 -29 -40 -12 -40 11 0 50 40 50 52 0 14 -15 9
-38 -12z"/>
<path d="M8728 6233 c7 -3 16 -2 19 1 4 3 -2 6 -13 5 -11 0 -14 -3 -6 -6z"/>
<path d="M4852 6223 c-29 -6 -24 -24 12 -42 33 -15 48 -5 40 27 -6 22 -9 23
-52 15z"/>
<path d="M8532 6090 c-12 -10 -22 -29 -22 -44 0 -23 2 -25 19 -14 15 9 17 15
9 26 -9 10 -6 14 10 19 12 3 22 9 22 14 0 17 -16 16 -38 -1z"/>
<path d="M10385 5522 c6 -5 26 -15 45 -21 30 -10 33 -10 20 2 -8 8 -28 18 -45
21 -19 5 -26 4 -20 -2z"/>
<path d="M6416 5331 c-4 -7 -5 -15 -2 -18 9 -9 19 4 14 18 -4 11 -6 11 -12 0z"/>
<path d="M2487 5050 c-55 -23 -88 -43 -137 -83 -97 -78 -154 -136 -175 -177
-13 -25 -44 -65 -70 -90 -26 -25 -61 -65 -77 -90 -17 -25 -57 -74 -88 -110
-31 -36 -96 -123 -143 -195 -170 -256 -231 -328 -289 -339 -38 -7 -128 -86
-183 -159 -19 -26 -35 -49 -35 -52 0 -6 -67 -149 -136 -291 -54 -110 -65 -153
-41 -156 6 0 223 -2 482 -2 259 -1 458 0 443 2 -22 3 -27 9 -30 35 -2 18 -9
33 -15 33 -7 1 -17 2 -23 3 -5 0 -10 8 -10 16 0 8 -6 15 -12 15 -7 0 -29 22
-48 49 -19 27 -45 52 -57 55 -13 4 -23 12 -23 19 -1 17 -31 52 -54 60 -10 4
-16 10 -13 13 3 3 -7 18 -23 34 -15 15 -33 37 -39 49 -7 12 -16 19 -20 17 -11
-7 -44 30 -46 52 -4 29 -17 52 -30 52 -7 0 -18 6 -24 14 -9 11 -6 15 14 18 28
6 45 -5 104 -61 35 -33 86 -67 180 -118 13 -7 30 -13 37 -13 8 0 17 -7 20 -15
4 -8 12 -15 19 -15 7 0 18 -7 25 -15 7 -8 22 -15 34 -15 30 0 74 -32 69 -50
-3 -9 0 -8 7 3 11 18 13 18 32 1 15 -14 21 -15 27 -6 6 10 15 10 35 2 15 -5
41 -10 57 -10 24 0 29 -4 29 -25 0 -19 5 -25 21 -25 23 0 51 -54 46 -92 -1
-18 2 -22 18 -20 11 2 22 8 23 13 2 5 8 7 13 3 5 -3 9 1 9 8 0 7 7 2 16 -11
12 -16 19 -20 27 -12 18 18 27 13 27 -14 0 -16 6 -25 15 -25 8 0 15 -6 15 -14
0 -8 15 -25 33 -37 17 -13 34 -27 36 -32 2 -5 16 -22 32 -38 28 -29 30 -29
140 -29 109 0 234 19 368 57 161 45 487 93 628 93 67 0 453 44 498 56 11 3 58
21 105 39 130 51 163 53 257 17 43 -17 125 -47 183 -68 58 -21 186 -76 285
-122 99 -46 216 -97 260 -114 44 -16 96 -35 115 -42 49 -19 496 -242 610 -306
52 -29 124 -74 160 -100 108 -79 195 -137 267 -176 37 -20 78 -47 91 -58 l23
-21 57 31 c242 130 309 167 396 218 107 63 84 39 281 311 35 50 82 126 103
170 40 84 80 127 142 153 71 30 263 2 371 -53 68 -35 259 -166 331 -228 128
-109 230 -157 384 -181 856 -136 988 -149 1534 -150 l345 -1 165 33 c91 18
172 35 180 38 15 6 122 25 152 27 12 1 20 13 24 34 6 31 7 32 30 16 18 -11 27
-13 37 -4 8 6 17 8 20 4 13 -12 7 -23 -12 -23 -11 0 -23 -5 -27 -12 -5 -8 4
-9 32 -5 21 4 45 7 52 7 6 0 12 10 12 23 0 20 5 23 45 22 46 0 58 -8 29 -19
-9 -4 -14 -9 -11 -13 9 -8 77 39 77 54 0 7 7 10 15 7 9 -4 15 0 15 8 0 8 15
20 34 26 19 7 44 27 55 45 l21 32 0 -27 c0 -16 5 -28 10 -28 6 0 10 5 10 11 0
8 4 8 14 0 10 -8 21 -9 33 -3 10 5 23 7 29 5 6 -2 14 6 17 17 4 16 2 20 -9 16
-21 -8 -13 73 10 89 15 12 22 28 25 58 1 5 6 5 11 2 6 -3 10 0 10 8 0 7 20 36
45 63 37 40 45 56 45 86 0 48 13 49 27 3 9 -27 8 -47 -4 -88 -22 -76 -27 -202
-8 -217 8 -7 15 -20 15 -30 0 -9 9 -29 21 -44 12 -15 18 -33 15 -44 -5 -16 3
-20 68 -30 88 -14 146 -33 239 -78 75 -36 177 -66 177 -52 0 5 -7 23 -16 41
-18 35 -173 269 -183 277 -19 14 -105 129 -122 162 -11 21 -35 84 -54 139 -18
55 -59 152 -91 217 -97 198 -163 331 -176 352 -28 44 14 33 85 -22 52 -42 46
-21 -13 42 -27 29 -59 73 -71 99 -12 25 -35 62 -50 82 -16 20 -40 60 -55 90
-29 58 -56 99 -91 138 -12 13 -30 40 -40 60 -26 51 -77 134 -94 151 -8 8 -30
35 -49 60 -19 25 -39 50 -45 56 -5 6 -25 30 -44 53 -40 47 -50 51 -43 16 5
-30 3 -30 -46 -5 -21 11 -58 23 -82 26 -57 8 -213 -19 -305 -52 -83 -29 -319
-143 -323 -155 -2 -5 -11 -9 -20 -9 -23 -1 -67 -26 -68 -39 -3 -24 -5 -25 -13
-13 -6 10 -13 5 -28 -19 -20 -30 -21 -31 -28 -10 -4 14 -15 21 -31 21 -13 0
-24 -3 -24 -7 0 -5 -4 -14 -9 -21 -7 -12 -12 -12 -30 0 -19 11 -23 11 -33 -6
-8 -15 -12 -16 -19 -5 -7 11 -9 10 -9 -3 0 -12 -5 -15 -16 -11 -13 5 -15 2
-10 -13 5 -16 -3 -22 -45 -37 -28 -10 -53 -16 -57 -13 -3 4 7 20 23 36 16 16
26 32 23 36 -3 3 -28 -4 -55 -15 -26 -10 -61 -24 -78 -29 -16 -5 -29 -15 -27
-21 1 -6 -8 -12 -20 -13 -13 -1 -32 -2 -43 -3 -29 -3 -69 -13 -170 -45 -49
-15 -155 -47 -235 -70 -80 -24 -210 -62 -290 -86 -80 -24 -194 -55 -255 -69
-503 -119 -742 -163 -835 -152 -26 3 -70 17 -96 31 -135 71 -227 106 -278 106
-110 -1 -201 -72 -273 -215 -55 -108 -119 -204 -202 -303 -33 -40 -61 -77 -61
-82 0 -13 -110 -148 -222 -271 -95 -104 -271 -269 -288 -269 -5 0 -32 30 -61
68 -99 125 -176 209 -266 290 -84 75 -231 231 -313 331 -19 23 -59 61 -90 84
-30 23 -75 58 -100 78 -97 79 -239 167 -311 192 -41 14 -135 45 -209 68 -131
40 -366 119 -600 201 -180 63 -230 78 -255 78 -13 0 -61 13 -107 29 -46 15
-135 41 -198 56 -161 39 -297 94 -585 238 -308 153 -319 159 -325 167 -10 14
-267 164 -330 192 -68 31 -198 68 -234 67 -12 0 -42 -9 -69 -19z m588 -500
c-3 -5 -10 -10 -16 -10 -5 0 -9 5 -9 10 0 6 7 10 16 10 8 0 12 -4 9 -10z m-54
-44 c6 3 17 3 26 0 14 -6 13 -10 -7 -31 -32 -34 -38 -32 -37 11 1 20 3 32 5
25 2 -6 8 -8 13 -5z m6773 -181 c3 -8 12 -15 20 -15 9 0 12 -7 9 -20 -7 -28
-20 -25 -27 6 -5 20 -11 24 -29 20 -12 -3 -16 -3 -9 0 6 3 10 10 6 15 -3 5 1
9 9 9 8 0 17 -7 21 -15z m1287 -111 c6 -7 12 -32 13 -55 2 -33 -1 -43 -16 -47
-10 -2 -18 -11 -18 -18 0 -8 -4 -14 -10 -14 -5 0 -10 -7 -10 -15 0 -8 -4 -15
-10 -15 -5 0 -10 5 -10 10 0 6 -5 10 -11 10 -6 0 -8 -8 -4 -19 3 -12 0 -21
-10 -25 -8 -3 -15 -12 -15 -21 0 -8 -7 -15 -15 -15 -8 0 -22 -11 -31 -26 -9
-14 -23 -23 -30 -20 -7 3 -15 -2 -18 -9 -3 -9 -13 -12 -23 -9 -15 5 -16 4 -3
-5 13 -10 13 -13 -4 -26 -26 -20 -43 -19 -50 3 -3 9 -4 4 -2 -13 l4 -30 -17
22 -18 22 -21 -22 c-12 -11 -25 -17 -29 -13 -13 13 -5 99 10 111 8 5 17 20 21
33 4 12 12 22 17 22 5 0 8 4 7 8 -2 4 15 24 36 43 22 18 40 32 40 30 3 -13 45
13 54 33 17 38 44 65 58 59 8 -3 14 0 14 6 0 6 -6 11 -12 12 -7 0 -5 4 5 7 26
11 95 2 108 -14z m-1261 6 c0 -5 -5 -10 -11 -10 -5 0 -7 5 -4 10 3 6 8 10 11
10 2 0 4 -4 4 -10z m-28 -50 c11 0 16 -5 13 -11 -4 -6 -13 -8 -21 -5 -7 3 -16
0 -20 -5 -10 -16 -37 29 -29 49 6 15 9 15 22 -5 9 -13 24 -23 35 -23z m-71
-53 c-8 -8 -11 -7 -11 4 0 20 13 34 18 19 3 -7 -1 -17 -7 -23z m-34 -59 c-3
-8 -6 -5 -6 6 -1 11 2 17 5 13 3 -3 4 -12 1 -19z m1665 -105 c6 -22 -1 -43
-12 -43 -5 0 -37 -20 -72 -43 -35 -24 -82 -54 -105 -67 -41 -23 -43 -23 -63
-5 -19 17 -21 17 -62 -11 -24 -16 -51 -32 -60 -36 -10 -4 -18 -14 -18 -23 0
-8 -5 -15 -11 -15 -12 0 -73 -44 -110 -80 -18 -18 -24 -31 -19 -45 7 -19 7
-19 14 3 4 12 14 22 22 22 8 0 14 7 14 15 0 21 23 19 49 -4 l21 -19 -24 -16
c-14 -9 -32 -13 -40 -10 -11 4 -19 -2 -26 -20 -5 -14 -13 -25 -17 -24 -5 1
-18 -3 -30 -10 -12 -7 -26 -11 -30 -10 -10 3 -65 -32 -75 -48 -4 -6 -21 -11
-38 -12 -20 0 -40 -10 -55 -26 -22 -24 -45 -34 -45 -20 0 15 67 64 87 64 20 0
73 51 73 70 0 5 -14 18 -30 30 -17 12 -28 26 -25 31 4 5 -1 9 -9 9 -9 0 -16 5
-16 10 0 18 -39 10 -50 -10 -6 -11 -18 -20 -28 -20 -16 -1 -16 -2 1 -14 24
-19 21 -28 -14 -49 -25 -14 -30 -15 -26 -3 7 18 -8 30 -24 20 -8 -4 -8 -9 0
-17 6 -6 11 -20 11 -31 0 -17 -2 -18 -10 -6 -8 12 -11 13 -19 1 -5 -8 -16 -11
-30 -6 -13 4 -21 2 -21 -5 0 -6 5 -8 10 -5 6 3 10 -1 10 -10 0 -11 -5 -15 -15
-11 -8 3 -18 -1 -22 -8 -5 -7 -17 -16 -28 -20 -29 -8 -51 39 -26 57 10 6 23
21 30 32 11 19 12 18 7 -5 -3 -14 -3 -19 0 -12 3 6 12 12 20 12 8 0 11 6 7 16
-6 15 16 36 42 40 6 0 15 2 21 2 7 1 11 16 10 34 -1 24 4 33 17 36 15 3 18 0
12 -18 -6 -19 -5 -21 14 -11 29 16 43 72 22 88 -14 10 -11 12 17 13 20 0 31
-4 27 -10 -9 -15 7 -12 29 5 11 8 35 15 53 15 21 0 36 6 39 15 4 8 10 12 15 9
5 -3 9 0 9 5 0 21 20 10 26 -14 6 -24 24 -35 24 -15 0 5 7 7 15 4 11 -5 15 1
15 20 0 24 2 25 20 16 12 -6 30 -8 40 -5 13 4 22 1 26 -9 3 -9 10 -14 14 -11
9 6 8 24 -3 43 -5 7 -4 12 2 12 6 0 11 -4 11 -10 0 -5 7 -10 16 -10 10 0 14 6
11 14 -4 10 -1 13 8 10 7 -3 24 6 36 20 13 14 28 26 34 26 13 0 71 29 105 53
13 9 31 17 39 17 8 0 22 7 32 16 10 9 36 18 58 21 23 3 44 10 47 14 9 15 21
10 26 -8z m-642 -3 c0 -5 -4 -10 -8 -10 -10 0 -9 -36 1 -46 10 -10 9 -24 -3
-24 -11 0 -24 65 -15 79 8 14 25 14 25 1z m-9132 -56 c27 -18 29 -44 4 -44
-23 0 -56 35 -47 49 8 15 17 14 43 -5z m9192 -39 c0 -8 -4 -15 -10 -15 -5 0
-7 7 -4 15 4 8 8 15 10 15 2 0 4 -7 4 -15z m-50 -20 c-7 -8 -17 -15 -22 -15
-6 0 -5 7 2 15 7 8 17 15 22 15 6 0 5 -7 -2 -15z m140 -11 c0 -8 -5 -12 -10
-9 -6 4 -8 11 -5 16 9 14 15 11 15 -7z m-188 -36 c-7 -7 -12 -8 -12 -2 0 14
12 26 19 19 2 -3 -1 -11 -7 -17z m432 -16 c6 -11 -53 -56 -61 -48 -7 7 36 56
48 56 4 0 10 -4 13 -8z m-154 -122 c0 -5 -5 -10 -11 -10 -5 0 -7 5 -4 10 3 6
8 10 11 10 2 0 4 -4 4 -10z m-314 -67 c-4 -4 -11 -1 -16 7 -16 25 -11 35 7 17
9 -9 13 -20 9 -24z m988 -84 c-3 -5 6 -13 20 -19 24 -9 53 -47 42 -57 -6 -7
-66 36 -66 47 0 5 -9 12 -20 15 -30 9 -25 33 5 27 14 -2 22 -8 19 -13z m-1289
-87 c3 -8 3 -17 0 -20 -3 -3 -5 0 -5 6 0 7 -11 9 -30 6 -18 -4 -30 -2 -30 4 0
10 20 18 47 18 7 1 15 -6 18 -14z m-95 -14 c0 -19 -13 -36 -30 -38 -27 -4 -41
0 -35 10 3 5 12 7 19 4 8 -3 16 4 19 15 6 23 27 29 27 9z m-90 -44 c0 -8 13
-17 30 -20 30 -7 43 -34 15 -34 -8 0 -15 -4 -15 -10 0 -13 -32 0 -46 18 -9 12
-13 9 -22 -16 -11 -33 -11 -32 -89 -36 -27 -1 -22 27 5 29 24 2 56 25 34 25
-7 0 -12 5 -12 11 0 5 4 8 9 4 6 -3 15 4 21 15 9 16 15 19 24 10 10 -8 15 -5
19 11 6 23 27 17 27 -7z m110 16 c0 -5 -4 -10 -10 -10 -5 0 -10 5 -10 10 0 6
5 10 10 10 6 0 10 -4 10 -10z m30 -31 c0 -5 -4 -8 -9 -4 -5 3 -12 1 -16 -5 -8
-14 -45 -13 -45 1 0 6 7 9 15 6 8 -4 17 -2 20 3 8 13 35 13 35 -1z m-43 -50
c-3 -12 0 -22 9 -26 8 -3 14 -10 14 -16 0 -8 -3 -8 -11 0 -6 6 -18 9 -25 6
-10 -3 -14 3 -14 19 0 26 7 38 23 38 5 0 7 -9 4 -21z m-262 -199 c3 -5 1 -10
-4 -10 -6 0 -11 5 -11 10 0 6 2 10 4 10 3 0 8 -4 11 -10z m-200 -50 c3 -5 1
-10 -4 -10 -6 0 -11 5 -11 10 0 6 2 10 4 10 3 0 8 -4 11 -10z m-80 -61 c16
-29 15 -31 -2 -27 -11 2 -19 14 -21 31 -4 35 4 34 23 -4z m-42 4 c-7 -2 -21
-2 -30 0 -10 3 -4 5 12 5 17 0 24 -2 18 -5z m137 3 c0 -3 -4 -8 -10 -11 -5 -3
-10 -1 -10 4 0 6 5 11 10 11 6 0 10 -2 10 -4z m-265 -143 c-9 -8 -18 -13 -21
-10 -8 8 19 36 29 30 4 -2 0 -11 -8 -20z"/>
<path d="M10931 4144 c0 -11 3 -14 6 -6 3 7 2 16 -1 19 -3 4 -6 -2 -5 -13z"/>
<path d="M10760 3968 c0 -9 5 -20 10 -23 13 -8 13 5 0 25 -8 13 -10 13 -10 -2z"/>
<path d="M10810 3936 c0 -8 6 -16 14 -19 10 -4 12 0 9 14 -6 22 -23 26 -23 5z"/>
<path d="M10815 3700 c-3 -5 1 -10 10 -10 9 0 13 5 10 10 -3 6 -8 10 -10 10
-2 0 -7 -4 -10 -10z"/>
<path d="M10450 3519 c0 -5 5 -7 10 -4 6 3 10 8 10 11 0 2 -4 4 -10 4 -5 0
-10 -5 -10 -11z"/>
<path d="M11070 4821 c0 -6 4 -13 10 -16 6 -3 7 1 4 9 -7 18 -14 21 -14 7z"/>
<path d="M6486 4611 c-4 -5 0 -11 6 -14 7 -2 0 -8 -17 -12 -16 -5 -36 -17 -43
-27 -7 -10 -19 -18 -25 -18 -8 0 -9 3 -1 8 6 4 13 15 17 25 9 24 -14 22 -47
-4 -22 -17 -25 -24 -14 -31 10 -8 9 -9 -3 -5 -10 3 -26 -5 -40 -19 -12 -13
-17 -24 -11 -24 7 0 12 -7 12 -16 0 -9 -6 -14 -12 -11 -7 2 -21 -9 -30 -25
-17 -27 -20 -28 -74 -22 -41 5 -55 4 -50 -4 4 -6 13 -9 21 -5 16 5 45 -13 45
-28 0 -4 -21 -8 -46 -7 -40 0 -45 3 -41 20 4 15 2 18 -11 13 -9 -4 -23 -8 -30
-9 -8 -1 -17 -8 -22 -15 -4 -8 -13 -11 -19 -7 -6 4 -30 -12 -55 -34 -34 -32
-47 -53 -56 -92 -23 -94 6 -237 45 -222 7 3 16 1 20 -5 3 -7 0 -8 -9 -5 -29
11 -16 -14 24 -49 41 -35 49 -61 30 -97 -15 -29 -21 -170 -8 -209 20 -62 77
-130 132 -158 39 -20 70 -27 132 -31 94 -5 145 12 211 72 l40 35 33 -34 c64
-66 215 -88 311 -46 50 21 112 79 136 125 32 61 26 276 -8 276 -4 0 -10 7 -13
16 -4 10 11 31 43 63 51 50 94 120 90 149 -1 9 1 25 6 35 10 24 -12 122 -31
137 -7 7 -14 18 -14 24 0 31 -105 104 -172 120 -38 9 -35 -9 3 -20 17 -5 29
-13 27 -19 -2 -5 -7 -8 -13 -6 -5 2 -34 3 -62 2 -56 -1 -68 9 -30 27 19 9 16
11 -26 11 -45 1 -49 3 -62 34 -18 44 -92 111 -139 127 -21 6 -40 9 -43 6 -4
-3 2 -6 13 -7 18 0 18 -1 -1 -8 -22 -9 -45 -4 -45 11 0 5 5 6 10 3 6 -3 10 -2
10 3 0 12 -87 15 -94 3z m139 -77 c45 -21 105 -111 105 -157 0 -43 17 -47 77
-20 45 21 65 24 104 20 114 -14 187 -121 165 -240 -8 -45 -73 -118 -125 -142
-23 -10 -41 -22 -41 -26 0 -5 18 -36 40 -70 37 -57 40 -68 40 -131 0 -57 -4
-76 -27 -111 -46 -73 -106 -107 -188 -107 -48 0 -65 5 -110 35 -29 20 -65 51
-80 70 -32 43 -49 44 -65 5 -37 -89 -191 -147 -283 -106 -69 31 -121 103 -131
182 -8 54 14 129 56 186 11 16 19 31 17 32 -2 2 -27 15 -55 29 -47 24 -92 69
-120 122 -25 49 -9 141 34 188 46 51 188 79 238 47 32 -20 50 -7 57 41 7 53
50 115 102 145 49 28 140 32 190 8z m68 -20 c4 -23 3 -24 -10 -11 -9 8 -12 20
-9 26 10 16 13 14 19 -15z m-386 -106 c-3 -8 -6 -5 -6 6 -1 11 2 17 5 13 3 -3
4 -12 1 -19z m710 -15 c-4 -3 1 -15 10 -26 18 -19 17 -19 -4 -6 -24 15 -31 39
-11 39 6 0 8 -3 5 -7z m-724 -21 c2 7 8 10 12 5 5 -4 4 -12 -2 -18 -13 -13
-53 5 -53 23 0 6 9 3 19 -6 15 -13 20 -14 24 -4z m484 12 c-3 -3 -12 -4 -19
-1 -8 3 -5 6 6 6 11 1 17 -2 13 -5z m-746 -47 c-6 -8 -8 -17 -4 -20 3 -4 -1
-7 -11 -7 -10 0 -14 -5 -10 -12 4 -7 3 -8 -4 -4 -13 8 13 56 30 56 7 0 6 -5
-1 -13z m-41 -57 c0 -5 -2 -10 -4 -10 -3 0 -8 5 -11 10 -3 6 -1 10 4 10 6 0
11 -4 11 -10z m1110 -10 c0 -5 -2 -10 -4 -10 -3 0 -8 5 -11 10 -3 6 -1 10 4
10 6 0 11 -4 11 -10z m-1130 -20 c9 -16 8 -20 -5 -20 -8 0 -15 9 -15 20 0 11
2 20 5 20 2 0 9 -9 15 -20z m1150 -41 c0 -5 -4 -9 -10 -9 -5 0 -10 7 -10 16 0
8 5 12 10 9 6 -3 10 -10 10 -16z m0 -80 c0 -11 -4 -17 -10 -14 -5 3 -10 13
-10 21 0 8 5 14 10 14 6 0 10 -9 10 -21z m-1070 -149 c0 -5 -4 -10 -9 -10 -6
0 -13 5 -16 10 -3 6 1 10 9 10 9 0 16 -4 16 -10z m988 -221 c-2 -6 -8 -10 -13
-10 -5 0 -11 4 -13 10 -2 6 4 11 13 11 9 0 15 -5 13 -11z m-528 -188 c0 -12
-20 -25 -27 -18 -7 7 6 27 18 27 5 0 9 -4 9 -9z m-257 -56 c-7 -21 -13 -19
-13 6 0 11 4 18 10 14 5 -3 7 -12 3 -20z m127 -10 c0 -8 -2 -15 -4 -15 -2 0
-6 7 -10 15 -3 8 -1 15 4 15 6 0 10 -7 10 -15z"/>
<path d="M6490 4425 c-10 -12 -9 -20 4 -40 9 -14 21 -25 27 -25 6 0 7 -9 3
-22 -5 -13 -7 -53 -6 -90 4 -92 -22 -107 -32 -18 -2 19 -4 38 -5 43 -2 14 -59
7 -65 -9 -11 -28 -6 -42 24 -72 35 -35 38 -52 10 -52 -12 0 -29 15 -45 40 -31
48 -71 56 -81 15 -9 -35 1 -55 28 -55 26 -1 64 -25 50 -34 -12 -7 -127 18
-180 39 -23 10 -49 26 -57 37 -10 15 -20 19 -39 14 -32 -8 -35 -25 -3 -19 14
3 26 -2 33 -14 9 -15 7 -18 -15 -20 -14 0 -29 4 -33 10 -4 6 -10 8 -14 4 -5
-4 2 -17 14 -30 17 -17 26 -19 39 -11 12 8 38 3 100 -18 46 -15 93 -28 103
-28 11 0 20 -4 20 -10 0 -5 -7 -10 -15 -10 -18 0 -20 -20 -2 -21 6 0 2 -4 -11
-10 -24 -9 -58 2 -75 25 -5 6 -5 -5 -1 -24 3 -19 8 -37 10 -39 2 -2 35 2 73 9
67 12 114 8 95 -9 -13 -12 -74 -31 -99 -31 -12 0 -30 -9 -40 -20 -17 -18 -17
-21 -1 -45 22 -33 50 -32 76 5 20 29 70 43 70 20 0 -5 -7 -7 -15 -4 -9 4 -19
-4 -27 -23 -23 -53 -97 -141 -128 -151 -23 -9 -30 -17 -30 -38 0 -29 24 -53
52 -54 19 0 38 28 38 57 0 10 23 50 50 88 28 39 53 78 56 87 3 9 12 19 20 22
22 8 17 -37 -7 -68 -29 -36 -22 -70 15 -74 36 -4 45 10 47 73 0 28 4 61 8 74
9 33 31 39 32 9 2 -98 6 -135 12 -145 20 -31 92 2 79 35 -3 10 -16 32 -29 51
-57 84 -3 52 77 -46 36 -43 60 -82 60 -96 0 -45 69 -79 84 -41 14 38 6 60 -28
77 -21 10 -58 46 -92 92 -31 41 -60 75 -65 75 -5 0 -9 5 -9 10 0 16 18 11 46
-12 14 -13 34 -26 44 -30 25 -9 50 15 50 47 0 20 -6 25 -37 30 -59 9 -116 29
-121 43 -6 18 87 16 108 -3 13 -11 24 -12 53 -4 32 9 37 14 37 39 0 24 -5 31
-27 36 -14 4 -34 2 -44 -5 -23 -14 -56 -14 -64 -1 -3 6 2 13 12 16 10 4 52 19
93 34 57 21 86 27 117 23 35 -5 43 -2 52 16 15 26 -6 38 -38 22 -25 -14 -41
-14 -41 -1 0 6 9 10 20 10 11 0 20 5 20 10 0 6 7 10 15 10 8 0 15 5 15 10 0
16 -46 11 -61 -7 -14 -16 -110 -63 -130 -63 -7 0 -8 12 -4 30 6 25 4 30 -13
30 -11 0 -22 -7 -26 -15 -6 -17 -26 -20 -26 -5 0 6 11 16 25 22 32 14 32 28 1
28 -25 0 -56 -23 -56 -41 0 -16 -58 -70 -64 -60 -10 15 15 71 36 82 24 13 21
57 -4 73 -28 17 -52 -5 -58 -52 -5 -37 -7 -39 -23 -27 -11 8 -14 16 -8 19 6 4
8 31 4 70 -4 50 -2 69 10 87 15 21 15 24 0 41 -20 22 -56 23 -73 3z m63 -18
c7 4 6 -1 -2 -11 -10 -12 -16 -14 -21 -5 -4 6 -14 8 -21 5 -8 -4 -5 0 6 9 12
9 21 11 23 5 2 -5 9 -7 15 -3z m-93 -163 c0 -8 -4 -12 -10 -9 -5 3 -10 10 -10
16 0 5 5 9 10 9 6 0 10 -7 10 -16z m-100 -64 l20 -20 -20 0 c-11 0 -20 2 -20
4 0 2 -3 11 -6 20 -8 22 2 20 26 -4z m174 -31 c-3 -5 -10 -7 -15 -3 -5 3 -7
10 -3 15 3 5 10 7 15 3 5 -3 7 -10 3 -15z m209 -28 c-4 -15 -8 -17 -28 -7 -28
13 -23 26 10 26 18 0 22 -4 18 -19z m11 -207 c5 -14 4 -15 -9 -4 -17 14 -19
20 -6 20 5 0 12 -7 15 -16z m-412 -16 c-9 -9 -15 -9 -24 0 -9 9 -7 12 12 12
19 0 21 -3 12 -12z m278 -98 c0 -5 -5 -10 -11 -10 -5 0 -7 5 -4 10 3 6 8 10
11 10 2 0 4 -4 4 -10z"/>
<path d="M6284 4052 c9 -15 48 -23 43 -9 -2 7 -14 14 -26 15 -13 2 -21 -1 -17
-6z"/>
<path d="M9985 4440 c3 -5 8 -10 11 -10 2 0 4 5 4 10 0 6 -5 10 -11 10 -5 0
-7 -4 -4 -10z"/>
<path d="M6170 4390 c0 -5 7 -10 16 -10 8 0 12 5 9 10 -3 6 -10 10 -16 10 -5
0 -9 -4 -9 -10z"/>
<path d="M4275 3048 l-50 -33 -125 1 c-69 1 -242 4 -385 6 -231 5 -270 3 -350
-14 -135 -29 -431 -133 -520 -183 -71 -40 -85 -39 -232 10 -206 70 -326 92
-538 99 -99 3 -238 9 -310 12 -113 5 -128 4 -113 -9 10 -8 15 -17 11 -20 -3
-4 -1 -7 5 -7 7 0 12 -9 12 -20 0 -11 5 -20 11 -20 6 0 8 -7 5 -17 -4 -9 0
-31 7 -48 27 -55 35 -80 41 -115 3 -19 8 -46 12 -60 4 -14 11 -70 16 -125 5
-55 14 -115 20 -134 15 -49 11 -196 -7 -250 -18 -52 -35 -75 -87 -113 -20 -15
-44 -35 -52 -44 -9 -9 -24 -13 -32 -10 -12 5 -15 2 -10 -10 3 -8 6 -17 6 -20
0 -2 7 -1 15 2 8 4 15 1 15 -5 0 -15 -23 -14 -39 2 -11 10 -13 10 -7 0 5 -8 1
-13 -9 -13 -9 0 -13 -5 -10 -11 4 -6 14 -8 22 -4 11 3 8 -6 -9 -27 -13 -18
-46 -87 -72 -153 -26 -66 -56 -140 -66 -165 -31 -76 -39 -120 -46 -250 -4 -90
-11 -135 -24 -160 -19 -38 -71 -88 -219 -215 -85 -72 -97 -88 -131 -160 -28
-62 -56 -101 -119 -167 -68 -72 -88 -102 -120 -175 -21 -48 -54 -114 -73 -145
-20 -32 -40 -70 -45 -85 -8 -23 -45 -117 -70 -181 -4 -9 1176 -12 5881 -12
l5886 0 -5 25 c-3 14 -8 37 -11 53 -3 15 -7 206 -9 424 -1 218 -6 401 -10 407
-3 6 -11 9 -16 6 -13 -8 -11 9 2 22 8 8 9 37 4 92 -6 65 -11 83 -26 92 -12 6
-19 20 -19 39 0 20 -6 31 -19 35 -26 8 -36 42 -20 61 16 20 19 52 7 83 -9 26
4 52 16 32 15 -24 22 -9 12 24 -6 19 -16 35 -23 35 -9 0 -10 7 -3 24 5 13 6
26 3 30 -3 3 -2 13 2 23 9 21 8 50 -5 78 -17 41 -23 61 -24 85 -1 14 -5 31 -9
38 -5 7 -3 12 7 12 12 0 13 6 6 31 -7 24 -6 28 3 20 9 -7 16 -5 24 7 13 22 56
21 81 -1 10 -9 31 -18 45 -19 15 -1 27 -6 27 -10 0 -4 7 -8 15 -8 8 0 15 5 15
11 0 6 6 9 14 6 8 -3 17 -1 20 6 4 7 4 0 2 -15 -4 -34 1 -36 14 -5 9 22 9 22
9 1 1 -12 9 -32 19 -45 19 -23 52 -35 52 -18 0 5 -6 9 -13 9 -9 0 -11 12 -9
38 3 26 -1 42 -12 51 -14 11 -16 11 -16 -4 0 -14 -3 -15 -15 -5 -20 16 -19 30
2 30 14 0 13 3 -5 20 -12 12 -22 24 -22 28 0 4 -13 13 -30 20 -16 7 -32 22
-35 33 -4 10 -11 19 -16 19 -5 0 -9 4 -9 9 0 5 -9 29 -21 55 -18 43 -22 45
-42 35 -12 -7 -19 -8 -15 -4 4 4 -2 21 -13 36 -11 16 -17 29 -13 29 3 0 1 7
-6 15 -6 8 -9 19 -5 25 3 5 0 17 -8 25 -8 8 -12 25 -10 39 3 16 1 26 -6 26 -6
0 -11 15 -11 33 0 18 -5 38 -12 45 -9 9 -9 12 0 12 7 0 12 4 12 10 0 5 -7 7
-16 3 -14 -5 -16 -2 -10 22 6 22 4 26 -8 22 -17 -7 -46 22 -46 46 0 10 -8 17
-20 17 -13 0 -20 7 -20 19 0 16 -11 22 -53 31 -238 49 -596 51 -1107 6 -164
-14 -261 -44 -446 -136 l-101 -51 -214 -11 c-283 -14 -331 -14 -549 0 -250 15
-391 40 -570 97 -108 35 -205 55 -275 55 -24 0 -73 15 -120 35 -47 21 -111 40
-155 46 -103 15 -136 37 -156 104 -10 35 -26 63 -45 79 -29 24 -46 29 -174 41
-33 3 -91 15 -130 27 -46 14 -98 22 -150 22 -134 1 -200 -46 -278 -199 -20
-38 -42 -96 -50 -128 -29 -111 -96 -189 -264 -305 -48 -33 -104 -72 -123 -85
-131 -90 -228 -149 -268 -161 -26 -8 -90 -35 -142 -60 -52 -25 -105 -46 -116
-46 -28 0 -222 90 -299 139 -33 21 -84 51 -113 67 -28 16 -132 77 -230 135
-329 197 -568 323 -776 409 -40 17 -104 50 -142 73 -38 24 -128 72 -200 108
-127 64 -263 153 -431 281 -45 35 -90 64 -100 66 -10 1 -41 -12 -68 -30z
m8075 -1081 c0 -18 -2 -19 -10 -7 -13 20 -13 43 0 35 6 -3 10 -16 10 -28z
m-90 -566 c0 -5 -7 -11 -14 -14 -10 -4 -13 -1 -9 9 6 15 23 19 23 5z m70 -543
c0 -5 -4 -8 -10 -8 -5 0 -10 10 -10 23 0 18 2 19 10 7 5 -8 10 -18 10 -22z"/>
<path d="M1318 2943 c6 -2 18 -2 25 0 6 3 1 5 -13 5 -14 0 -19 -2 -12 -5z"/>
<path d="M1403 2943 c9 -2 23 -2 30 0 6 3 -1 5 -18 5 -16 0 -22 -2 -12 -5z"/>
<path d="M11560 2859 c-30 -5 -27 -7 23 -8 31 0 57 3 57 8 0 10 -30 10 -80 0z"/>
<path d="M11665 2861 c11 -5 38 -5 60 -1 38 7 36 8 -20 8 -40 1 -53 -2 -40 -7z"/>
<path d="M11390 2850 l-55 -7 50 -1 c28 0 59 3 70 8 23 10 14 10 -65 0z"/>
<path d="M995 2570 c6 -47 43 -130 57 -130 4 0 8 -6 8 -14 0 -7 13 -40 30 -72
16 -32 30 -65 30 -71 0 -7 5 -13 10 -13 6 0 10 -35 10 -85 0 -64 -5 -95 -19
-123 -10 -20 -22 -53 -26 -72 -4 -19 -11 -41 -16 -50 -7 -15 -45 -110 -80
-205 -11 -27 -19 -57 -19 -66 0 -9 -7 -29 -15 -45 -8 -16 -21 -65 -30 -109
-27 -134 -47 -218 -60 -260 -43 -133 -143 -460 -186 -609 -11 -38 -18 -74 -16
-80 3 -9 77 112 77 127 0 18 164 272 256 397 34 47 125 144 201 216 l138 131
42 119 c23 66 60 167 83 226 22 59 40 118 40 130 0 15 -25 47 -73 93 -40 38
-106 105 -145 148 -40 42 -76 77 -81 77 -5 0 -14 14 -20 32 -6 17 -24 52 -40
77 -16 25 -50 87 -76 137 -26 49 -56 101 -67 115 l-20 24 7 -45z"/>
<path d="M12538 2302 c-3 -10 -4 -45 -2 -77 2 -33 5 -109 8 -170 4 -122 47
-322 59 -275 8 33 -22 423 -39 508 -7 35 -19 42 -26 14z"/>
<path d="M12285 1550 c3 -5 8 -10 11 -10 2 0 4 5 4 10 0 6 -5 10 -11 10 -5 0
-7 -4 -4 -10z"/>
<path d="M12565 1448 c-15 -46 -38 -111 -51 -145 -25 -63 -31 -117 -15 -127
26 -16 96 163 107 272 9 100 -9 100 -41 0z"/>
<path d="M12276 1465 c-9 -14 -13 -25 -9 -25 10 0 36 40 30 46 -2 3 -12 -7
-21 -21z"/>
<path d="M12366 1363 c-4 -9 -2 -21 4 -27 7 -7 10 -2 10 17 0 31 -5 34 -14 10z"/>
<path d="M12437 948 c-3 -13 -13 -54 -22 -93 -29 -125 -45 -387 -35 -579 6
-94 15 -195 21 -223 10 -50 12 -53 41 -53 29 0 30 1 24 33 -4 17 -9 65 -11
105 -3 40 -9 80 -14 90 -12 23 -33 275 -27 332 2 25 9 61 15 80 6 19 11 66 11
103 0 38 4 76 9 85 4 9 11 45 15 80 6 50 4 62 -7 62 -8 0 -17 -10 -20 -22z"/>
</g>
</svg>
